<svg xmlns="http://www.w3.org/2000/svg" width="256" height="256" viewBox="0 0 100 100"><rect width="100" height="100" rx="20" fill="#990000" data-darkreader-inline-fill="" style="--darkreader-inline-fill:#1c1549;"></rect><path fill="#ffcc00" d="M25.15 51.10L25.0 21.74L35.49 21.74L35.49 77.95L24.31 77.95L16.20 47.15L16.20 77.95L5.52 77.95L5.52 21.74L16.85 21.74L25.15 51.10ZM51.51 21.74L51.51 69.30L64.59 69.30L64.59 77.95L41.13 77.95L41.13 21.74L50.51 21.74ZM93.85 31.55L93.85 41.31L83.40 41.31L83.40 32.58Q83.10 31.15 83.10 31.38Q82.80 30.68 81.94 30.78L81.94 30.78L79.94 30.78Q78.37 30.78 78.07 30.78Q76.85 30.75 76.85 32.58L76.85 32.58L76.85 67.43Q76.85 68.75 77.37 69.05Q77.90 69.25 78.30 69.25L78.75 69.25L80.50 69.25Q82.30 69.32 82.99 68.99Q83.25 68.35 83.25 67.43L83.25 67.43L83.25 58.77L93.88 58.77L93.88 68.45Q94.28 76.46 87.81 77.91L87.81 77.95L77.97 78.06Q65.90 79.06 65.90 68.45L65.90 68.45L65.90 31.55Q65.90 20.94 77.97 21.97L77.97 21.94L86.41 21.94Q93.85 22.74 93.85 31.55L93.85 31.55Z" data-darkreader-inline-fill="" style="--darkreader-inline-fill:#091829;"></path><path fill="#002855" d="M26.50 60.67L26.50 23.35L33.55 23.35L33.55 76.56L25.82 76.56L14.60 38.14L14.60 76.56L7.54 76.56L7.54 23.35L15.62 23.35L26.50 60.67ZM50.04 23.35L50.04 70.36L63.22 70.36L63.22 76.56L42.39 76.56L42.39 23.35L50.04 23.35ZM92.46 30.83L92.46 40.01L84.64 40.01L84.64 31.85Q84.64 30.32 84.17 29.85Q83.70 29.39 82.17 29.39L82.17 29.39L77.84 29.39Q76.31 29.39 75.80 29.85Q75.29 30.32 75.29 31.85L75.29 31.85L75.29 68.15Q75.29 69.68 75.80 70.14Q76.31 70.61 77.84 70.61L77.84 70.61L82.17 70.61Q83.70 70.61 84.17 70.14Q84.64 69.68 84.64 68.15L84.64 68.15L84.64 60.07L92.46 60.07L92.46 69.08Q92.46 76.65 84.47 76.65L84.47 76.65L75.46 76.65Q67.55 76.65 67.55 69.08L67.55 69.08L67.55 30.83Q67.55 23.35 75.46 23.35L75.46 23.35L84.47 23.35Q92.46 23.35 92.46 30.83L92.46 30.83Z" data-darkreader-inline-fill="" style="--darkreader-inline-fill:#131414;"></path></svg>